<?xml version="1.0" encoding="UTF-8"?> <svg xmlns="http://www.w3.org/2000/svg" width="137" height="137" viewBox="0 0 137 137" fill="none"> <path d="M68.5 110C45.6 110 27 91.4 27 68.5C27 45.6 45.6 27 68.5 27C91.4 27 110 45.6 110 68.5C110 91.4 91.4 110 68.5 110Z" fill="#FEE474"></path> <path fill-rule="evenodd" clip-rule="evenodd" d="M37 58.5C37 81.4 55.6 100 78.5 100C87.3997 100 95.65 97.1907 102.411 92.4115C107.191 85.65 110 77.3997 110 68.5C110 45.6 91.4 27 68.5 27C59.6002 27 51.3499 29.8093 44.5885 34.5885C39.8093 41.3499 37 49.6002 37 58.5Z" fill="#4F4F4F"></path> </svg> 