<?xml version="1.0" encoding="UTF-8"?> <!-- Generator: Adobe Illustrator 21.0.2, SVG Export Plug-In . SVG Version: 6.00 Build 0) --> <svg xmlns="http://www.w3.org/2000/svg" xmlns:xlink="http://www.w3.org/1999/xlink" id="Слой_2" x="0px" y="0px" viewBox="0 0 136.5 136.5" style="enable-background:new 0 0 136.5 136.5;" xml:space="preserve"> <style type="text/css"> .st0{fill:#FEE474;} .st1{fill:#4DCDC4;} </style> <title>hhhArtboard 2 copy 10 копия</title> <g> <g> <path class="st0" d="M68.2,109.8c-22.9,0-41.5-18.6-41.5-41.5s18.6-41.5,41.5-41.5s41.5,18.6,41.5,41.5S91.2,109.8,68.2,109.8z"></path> </g> </g> <path class="st1" d="M109.8,68.2c0-22.9-18.6-41.5-41.5-41.5v41.5v1.3v40.2C91.1,109.8,109.7,91.2,109.8,68.2L109.8,68.2z"></path> <path class="st1" d="M68.2,109.8c22.9,0,41.5-18.6,41.5-41.5H68.2h-1.3H26.7C26.6,91.1,45.2,109.7,68.2,109.8L68.2,109.8z"></path> </svg> 