<?xml version="1.0" encoding="UTF-8"?> <!-- Generator: Adobe Illustrator 23.0.4, SVG Export Plug-In . SVG Version: 6.00 Build 0) --> <svg xmlns="http://www.w3.org/2000/svg" xmlns:xlink="http://www.w3.org/1999/xlink" id="Layer_1" x="0px" y="0px" viewBox="0 0 80.5 8.5" style="enable-background:new 0 0 80.5 8.5;" xml:space="preserve"> <style type="text/css"> .st0{fill:#2E2E2E;} </style> <g> <path class="st0" d="M15.1,8.5c-0.2,0-0.3-0.1-0.5-0.2c-0.3-0.3-0.3-0.7,0-0.9l7.2-7.2c0.3-0.3,0.7-0.3,0.9,0s0.3,0.7,0,0.9 l-7.2,7.2C15.4,8.4,15.2,8.5,15.1,8.5z"></path> </g> <g> <path class="st0" d="M0.7,8.5c-0.2,0-0.3-0.1-0.5-0.2c-0.3-0.3-0.3-0.7,0-0.9l7.2-7.2c0.3-0.3,0.7-0.3,0.9,0s0.3,0.7,0,0.9L1.1,8.3 C1,8.4,0.8,8.5,0.7,8.5z"></path> </g> <g> <path class="st0" d="M29.5,8.5c-0.2,0-0.3-0.1-0.5-0.2c-0.3-0.3-0.3-0.7,0-0.9l7.2-7.2c0.3-0.3,0.7-0.3,0.9,0s0.3,0.7,0,0.9 l-7.2,7.2C29.8,8.4,29.6,8.5,29.5,8.5z"></path> </g> <g> <path class="st0" d="M43.9,8.5c-0.2,0-0.3-0.1-0.5-0.2c-0.3-0.3-0.3-0.7,0-0.9l7.2-7.2c0.3-0.3,0.7-0.3,0.9,0s0.3,0.7,0,0.9 l-7.2,7.2C44.2,8.4,44,8.5,43.9,8.5z"></path> </g> <g> <path class="st0" d="M58.3,8.5c-0.2,0-0.3-0.1-0.5-0.2c-0.3-0.3-0.3-0.7,0-0.9L65,0.2c0.3-0.3,0.7-0.3,0.9,0s0.3,0.7,0,0.9 l-7.2,7.2C58.6,8.4,58.4,8.5,58.3,8.5z"></path> </g> <g> <path class="st0" d="M72.7,8.5c-0.2,0-0.3-0.1-0.5-0.2c-0.3-0.3-0.3-0.7,0-0.9l7.2-7.2c0.3-0.3,0.7-0.3,0.9,0s0.3,0.7,0,0.9 l-7.2,7.2C73,8.4,72.8,8.5,72.7,8.5z"></path> </g> </svg> 