<?xml version="1.0" encoding="UTF-8"?> <!-- Generator: Adobe Illustrator 23.0.4, SVG Export Plug-In . SVG Version: 6.00 Build 0) --> <svg xmlns="http://www.w3.org/2000/svg" xmlns:xlink="http://www.w3.org/1999/xlink" id="Layer_1" x="0px" y="0px" viewBox="0 0 87.8 131" style="enable-background:new 0 0 87.8 131;" xml:space="preserve"> <style type="text/css"> .st0{fill:#2E2E2E;} </style> <path class="st0" d="M79.9,7.2c-0.4,0-0.7,0.3-0.7,0.7c0,0.4,0.3,0.7,0.7,0.7c0.4,0,0.7-0.3,0.7-0.7C80.6,7.5,80.3,7.2,79.9,7.2z"></path> <path class="st0" d="M72.7,15.8c0.4,0,0.7-0.3,0.7-0.7c0-0.4-0.3-0.7-0.7-0.7c-0.4,0-0.7,0.3-0.7,0.7C72,15.5,72.3,15.8,72.7,15.8z"></path> <path class="st0" d="M87.1,15.8c0.4,0,0.7-0.3,0.7-0.7c0-0.4-0.3-0.7-0.7-0.7c-0.4,0-0.7,0.3-0.7,0.7C86.4,15.5,86.7,15.8,87.1,15.8 z"></path> <path class="st0" d="M72.7,1.4c0.4,0,0.7-0.3,0.7-0.7c0-0.4-0.3-0.7-0.7-0.7C72.3,0,72,0.3,72,0.7C72,1.1,72.3,1.4,72.7,1.4z"></path> <path class="st0" d="M87.1,1.4c0.4,0,0.7-0.3,0.7-0.7c0-0.4-0.3-0.7-0.7-0.7c-0.4,0-0.7,0.3-0.7,0.7C86.4,1.1,86.7,1.4,87.1,1.4z"></path> <path class="st0" d="M66,7.4c-0.1-0.1-0.3-0.2-0.5-0.2c-0.4,0-0.7,0.3-0.7,0.7c0,0.4,0.3,0.7,0.7,0.7c0.2,0,0.4-0.1,0.5-0.2 s0.2-0.3,0.2-0.5C66.2,7.7,66.2,7.5,66,7.4z"></path> <path class="st0" d="M79.9,36c-0.4,0-0.7,0.3-0.7,0.7c0,0.4,0.3,0.7,0.7,0.7c0.4,0,0.7-0.3,0.7-0.7C80.6,36.3,80.3,36,79.9,36z"></path> <path class="st0" d="M72.7,44.6c0.4,0,0.7-0.3,0.7-0.7c0-0.4-0.3-0.7-0.7-0.7c-0.4,0-0.7,0.3-0.7,0.7C72,44.3,72.3,44.6,72.7,44.6z"></path> <path class="st0" d="M87.1,44.6c0.4,0,0.7-0.3,0.7-0.7c0-0.4-0.3-0.7-0.7-0.7c-0.4,0-0.7,0.3-0.7,0.7C86.4,44.3,86.7,44.6,87.1,44.6 z"></path> <path class="st0" d="M72.7,30.2c0.4,0,0.7-0.3,0.7-0.7c0-0.4-0.3-0.7-0.7-0.7c-0.4,0-0.7,0.3-0.7,0.7C72,29.9,72.3,30.2,72.7,30.2z"></path> <path class="st0" d="M87.1,30.2c0.4,0,0.7-0.3,0.7-0.7c0-0.4-0.3-0.7-0.7-0.7c-0.4,0-0.7,0.3-0.7,0.7C86.4,29.9,86.7,30.2,87.1,30.2 z"></path> <path class="st0" d="M66,36.2c-0.1-0.1-0.3-0.2-0.5-0.2c-0.4,0-0.7,0.3-0.7,0.7c0,0.4,0.3,0.7,0.7,0.7c0.2,0,0.4-0.1,0.5-0.2 s0.2-0.3,0.2-0.5C66.2,36.5,66.2,36.3,66,36.2z"></path> <path class="st0" d="M79.9,23c0.4,0,0.7-0.3,0.7-0.7c0-0.1,0-0.2-0.1-0.3c-0.1-0.3-0.4-0.4-0.7-0.4c-0.3,0-0.6,0.2-0.7,0.4 c0,0.1-0.1,0.2-0.1,0.3C79.2,22.7,79.5,23,79.9,23z"></path> <path class="st0" d="M79.9,64.8c-0.4,0-0.7,0.3-0.7,0.7c0,0.4,0.3,0.7,0.7,0.7c0.4,0,0.7-0.3,0.7-0.7C80.6,65.1,80.3,64.8,79.9,64.8 z"></path> <path class="st0" d="M72.7,73.4c0.4,0,0.7-0.3,0.7-0.7c0-0.4-0.3-0.7-0.7-0.7c-0.4,0-0.7,0.3-0.7,0.7C72,73.1,72.3,73.4,72.7,73.4z"></path> <path class="st0" d="M87.1,73.4c0.4,0,0.7-0.3,0.7-0.7c0-0.4-0.3-0.7-0.7-0.7c-0.4,0-0.7,0.3-0.7,0.7C86.4,73.1,86.7,73.4,87.1,73.4 z"></path> <path class="st0" d="M72.7,59c0.4,0,0.7-0.3,0.7-0.7c0-0.4-0.3-0.7-0.7-0.7c-0.4,0-0.7,0.3-0.7,0.7C72,58.7,72.3,59,72.7,59z"></path> <path class="st0" d="M87.1,59c0.4,0,0.7-0.3,0.7-0.7c0-0.4-0.3-0.7-0.7-0.7c-0.4,0-0.7,0.3-0.7,0.7C86.4,58.7,86.7,59,87.1,59z"></path> <path class="st0" d="M66,65c-0.1-0.1-0.3-0.2-0.5-0.2c-0.4,0-0.7,0.3-0.7,0.7c0,0.4,0.3,0.7,0.7,0.7c0.2,0,0.4-0.1,0.5-0.2 s0.2-0.3,0.2-0.5C66.2,65.3,66.2,65.1,66,65z"></path> <path class="st0" d="M79.9,51.8c0.4,0,0.7-0.3,0.7-0.7c0-0.4-0.3-0.7-0.7-0.7c-0.4,0-0.7,0.3-0.7,0.7C79.2,51.5,79.5,51.8,79.9,51.8 z"></path> <path class="st0" d="M79.9,93.6c-0.4,0-0.7,0.3-0.7,0.7c0,0.4,0.3,0.7,0.7,0.7c0.4,0,0.7-0.3,0.7-0.7C80.6,93.9,80.3,93.6,79.9,93.6 z"></path> <path class="st0" d="M72.7,102.2c0.4,0,0.7-0.3,0.7-0.7c0-0.4-0.3-0.7-0.7-0.7c-0.4,0-0.7,0.3-0.7,0.7 C72,101.9,72.3,102.2,72.7,102.2z"></path> <path class="st0" d="M87.1,102.2c0.4,0,0.7-0.3,0.7-0.7c0-0.4-0.3-0.7-0.7-0.7c-0.4,0-0.7,0.3-0.7,0.7 C86.4,101.9,86.7,102.2,87.1,102.2z"></path> <path class="st0" d="M72.7,87.8c0.4,0,0.7-0.3,0.7-0.7c0-0.4-0.3-0.7-0.7-0.7c-0.4,0-0.7,0.3-0.7,0.7C72,87.5,72.3,87.8,72.7,87.8z"></path> <path class="st0" d="M87.1,87.8c0.4,0,0.7-0.3,0.7-0.7c0-0.4-0.3-0.7-0.7-0.7c-0.4,0-0.7,0.3-0.7,0.7C86.4,87.5,86.7,87.8,87.1,87.8 z"></path> <path class="st0" d="M66,93.8c-0.1-0.1-0.3-0.2-0.5-0.2c-0.4,0-0.7,0.3-0.7,0.7c0,0.4,0.3,0.7,0.7,0.7c0.2,0,0.4-0.1,0.5-0.2 s0.2-0.3,0.2-0.5C66.2,94.1,66.2,93.9,66,93.8z"></path> <path class="st0" d="M79.9,80.6c0.4,0,0.7-0.3,0.7-0.7c0-0.1,0-0.2-0.1-0.3c-0.1-0.3-0.4-0.4-0.7-0.4c-0.3,0-0.6,0.2-0.7,0.4 c0,0.1-0.1,0.2-0.1,0.3C79.2,80.3,79.5,80.6,79.9,80.6z"></path> <path class="st0" d="M79.9,122.4c-0.4,0-0.7,0.3-0.7,0.7c0,0.4,0.3,0.7,0.7,0.7c0.4,0,0.7-0.3,0.7-0.7 C80.6,122.7,80.3,122.4,79.9,122.4z"></path> <path class="st0" d="M72.7,129.6c-0.4,0-0.7,0.3-0.7,0.7c0,0.4,0.3,0.7,0.7,0.7c0.4,0,0.7-0.3,0.7-0.7 C73.4,129.9,73.1,129.6,72.7,129.6z"></path> <path class="st0" d="M87.1,129.6c-0.4,0-0.7,0.3-0.7,0.7c0,0.4,0.3,0.7,0.7,0.7c0.4,0,0.7-0.3,0.7-0.7 C87.8,129.9,87.5,129.6,87.1,129.6z"></path> <path class="st0" d="M72.7,115.2c-0.4,0-0.7,0.3-0.7,0.7c0,0.4,0.3,0.7,0.7,0.7c0.4,0,0.7-0.3,0.7-0.7 C73.4,115.5,73.1,115.2,72.7,115.2z"></path> <path class="st0" d="M87.1,115.2c-0.4,0-0.7,0.3-0.7,0.7c0,0.4,0.3,0.7,0.7,0.7c0.4,0,0.7-0.3,0.7-0.7 C87.8,115.5,87.5,115.2,87.1,115.2z"></path> <path class="st0" d="M66,122.6c-0.1-0.1-0.3-0.2-0.5-0.2c-0.4,0-0.7,0.3-0.7,0.7c0,0.4,0.3,0.7,0.7,0.7c0.2,0,0.4-0.1,0.5-0.2 s0.2-0.3,0.2-0.5C66.2,122.9,66.2,122.7,66,122.6z"></path> <path class="st0" d="M79.9,109.4c0.4,0,0.7-0.3,0.7-0.7c0-0.4-0.3-0.7-0.7-0.7c-0.4,0-0.7,0.3-0.7,0.7 C79.2,109.1,79.5,109.4,79.9,109.4z"></path> <path class="st0" d="M51.1,7.2c-0.4,0-0.7,0.3-0.7,0.7c0,0.4,0.3,0.7,0.7,0.7c0.4,0,0.7-0.3,0.7-0.7C51.8,7.5,51.5,7.2,51.1,7.2z"></path> <path class="st0" d="M43.9,15.8c0.4,0,0.7-0.3,0.7-0.7c0-0.4-0.3-0.7-0.7-0.7c-0.4,0-0.7,0.3-0.7,0.7C43.2,15.5,43.5,15.8,43.9,15.8 z"></path> <path class="st0" d="M58.3,15.8c0.4,0,0.7-0.3,0.7-0.7c0-0.4-0.3-0.7-0.7-0.7c-0.4,0-0.7,0.3-0.7,0.7C57.6,15.5,57.9,15.8,58.3,15.8 z"></path> <path class="st0" d="M43.9,1.4c0.4,0,0.7-0.3,0.7-0.7c0-0.4-0.3-0.7-0.7-0.7c-0.4,0-0.7,0.3-0.7,0.7C43.2,1.1,43.5,1.4,43.9,1.4z"></path> <path class="st0" d="M58.3,1.4c0.4,0,0.7-0.3,0.7-0.7C59,0.3,58.7,0,58.3,0c-0.4,0-0.7,0.3-0.7,0.7C57.6,1.1,57.9,1.4,58.3,1.4z"></path> <path class="st0" d="M51.1,36c-0.4,0-0.7,0.3-0.7,0.7c0,0.4,0.3,0.7,0.7,0.7c0.4,0,0.7-0.3,0.7-0.7C51.8,36.3,51.5,36,51.1,36z"></path> <path class="st0" d="M43.9,44.6c0.4,0,0.7-0.3,0.7-0.7c0-0.4-0.3-0.7-0.7-0.7c-0.4,0-0.7,0.3-0.7,0.7C43.2,44.3,43.5,44.6,43.9,44.6 z"></path> <path class="st0" d="M58.3,44.6c0.4,0,0.7-0.3,0.7-0.7c0-0.4-0.3-0.7-0.7-0.7c-0.4,0-0.7,0.3-0.7,0.7C57.6,44.3,57.9,44.6,58.3,44.6 z"></path> <path class="st0" d="M43.9,30.2c0.4,0,0.7-0.3,0.7-0.7c0-0.4-0.3-0.7-0.7-0.7c-0.4,0-0.7,0.3-0.7,0.7C43.2,29.9,43.5,30.2,43.9,30.2 z"></path> <path class="st0" d="M58.3,30.2c0.4,0,0.7-0.3,0.7-0.7c0-0.4-0.3-0.7-0.7-0.7c-0.4,0-0.7,0.3-0.7,0.7C57.6,29.9,57.9,30.2,58.3,30.2 z"></path> <path class="st0" d="M36.7,50.4c-0.1,0-0.2,0-0.3,0.1c-0.3,0.1-0.4,0.4-0.4,0.7c0,0.3,0.2,0.6,0.4,0.7c0.1,0,0.2,0.1,0.3,0.1 c0.4,0,0.7-0.3,0.7-0.7C37.4,50.7,37.1,50.4,36.7,50.4z"></path> <path class="st0" d="M65.5,23c0.2,0,0.4-0.1,0.5-0.2s0.2-0.3,0.2-0.5c0-0.1,0-0.2-0.1-0.3c0-0.1-0.1-0.2-0.2-0.2 c-0.1-0.1-0.3-0.2-0.5-0.2c-0.3,0-0.6,0.2-0.7,0.4c0,0.1-0.1,0.2-0.1,0.3C64.8,22.7,65.1,23,65.5,23z"></path> <path class="st0" d="M51.1,23c0.4,0,0.7-0.3,0.7-0.7c0-0.1,0-0.2-0.1-0.3c-0.1-0.3-0.4-0.4-0.7-0.4c-0.3,0-0.6,0.2-0.7,0.4 c0,0.1-0.1,0.2-0.1,0.3C50.4,22.7,50.7,23,51.1,23z"></path> <path class="st0" d="M51.1,64.8c-0.4,0-0.7,0.3-0.7,0.7c0,0.4,0.3,0.7,0.7,0.7c0.4,0,0.7-0.3,0.7-0.7C51.8,65.1,51.5,64.8,51.1,64.8 z"></path> <path class="st0" d="M43.9,73.4c0.4,0,0.7-0.3,0.7-0.7c0-0.4-0.3-0.7-0.7-0.7c-0.4,0-0.7,0.3-0.7,0.7C43.2,73.1,43.5,73.4,43.9,73.4 z"></path> <path class="st0" d="M58.3,73.4c0.4,0,0.7-0.3,0.7-0.7c0-0.4-0.3-0.7-0.7-0.7c-0.4,0-0.7,0.3-0.7,0.7C57.6,73.1,57.9,73.4,58.3,73.4 z"></path> <path class="st0" d="M43.9,59c0.4,0,0.7-0.3,0.7-0.7c0-0.4-0.3-0.7-0.7-0.7c-0.4,0-0.7,0.3-0.7,0.7C43.2,58.7,43.5,59,43.9,59z"></path> <path class="st0" d="M58.3,59c0.4,0,0.7-0.3,0.7-0.7c0-0.4-0.3-0.7-0.7-0.7c-0.4,0-0.7,0.3-0.7,0.7C57.6,58.7,57.9,59,58.3,59z"></path> <path class="st0" d="M65.5,51.8c0.2,0,0.4-0.1,0.5-0.2s0.2-0.3,0.2-0.5c0-0.2-0.1-0.4-0.2-0.5c-0.1-0.1-0.3-0.2-0.5-0.2 c-0.4,0-0.7,0.3-0.7,0.7C64.8,51.5,65.1,51.8,65.5,51.8z"></path> <path class="st0" d="M51.1,51.8c0.4,0,0.7-0.3,0.7-0.7c0-0.4-0.3-0.7-0.7-0.7c-0.4,0-0.7,0.3-0.7,0.7C50.4,51.5,50.7,51.8,51.1,51.8 z"></path> <path class="st0" d="M51.1,93.6c-0.4,0-0.7,0.3-0.7,0.7c0,0.4,0.3,0.7,0.7,0.7c0.4,0,0.7-0.3,0.7-0.7C51.8,93.9,51.5,93.6,51.1,93.6 z"></path> <path class="st0" d="M43.9,102.2c0.4,0,0.7-0.3,0.7-0.7c0-0.4-0.3-0.7-0.7-0.7c-0.4,0-0.7,0.3-0.7,0.7 C43.2,101.9,43.5,102.2,43.9,102.2z"></path> <path class="st0" d="M58.3,102.2c0.4,0,0.7-0.3,0.7-0.7c0-0.4-0.3-0.7-0.7-0.7c-0.4,0-0.7,0.3-0.7,0.7 C57.6,101.9,57.9,102.2,58.3,102.2z"></path> <path class="st0" d="M43.9,87.8c0.4,0,0.7-0.3,0.7-0.7c0-0.4-0.3-0.7-0.7-0.7c-0.4,0-0.7,0.3-0.7,0.7C43.2,87.5,43.5,87.8,43.9,87.8 z"></path> <path class="st0" d="M58.3,87.8c0.4,0,0.7-0.3,0.7-0.7c0-0.4-0.3-0.7-0.7-0.7c-0.4,0-0.7,0.3-0.7,0.7C57.6,87.5,57.9,87.8,58.3,87.8 z"></path> <path class="st0" d="M36.7,108c-0.1,0-0.2,0-0.3,0.1c-0.3,0.1-0.4,0.4-0.4,0.7c0,0.3,0.2,0.6,0.4,0.7c0.1,0,0.2,0.1,0.3,0.1 c0.4,0,0.7-0.3,0.7-0.7C37.4,108.3,37.1,108,36.7,108z"></path> <path class="st0" d="M65.5,80.6c0.2,0,0.4-0.1,0.5-0.2s0.2-0.3,0.2-0.5c0-0.1,0-0.2-0.1-0.3c0-0.1-0.1-0.2-0.2-0.2 c-0.1-0.1-0.3-0.2-0.5-0.2c-0.3,0-0.6,0.2-0.7,0.4c0,0.1-0.1,0.2-0.1,0.3C64.8,80.3,65.1,80.6,65.5,80.6z"></path> <path class="st0" d="M51.1,80.6c0.4,0,0.7-0.3,0.7-0.7c0-0.1,0-0.2-0.1-0.3c-0.1-0.3-0.4-0.4-0.7-0.4c-0.3,0-0.6,0.2-0.7,0.4 c0,0.1-0.1,0.2-0.1,0.3C50.4,80.3,50.7,80.6,51.1,80.6z"></path> <path class="st0" d="M51.1,122.4c-0.4,0-0.7,0.3-0.7,0.7c0,0.4,0.3,0.7,0.7,0.7c0.4,0,0.7-0.3,0.7-0.7 C51.8,122.7,51.5,122.4,51.1,122.4z"></path> <path class="st0" d="M43.9,129.6c-0.4,0-0.7,0.3-0.7,0.7c0,0.4,0.3,0.7,0.7,0.7c0.4,0,0.7-0.3,0.7-0.7 C44.6,129.9,44.3,129.6,43.9,129.6z"></path> <path class="st0" d="M58.3,129.6c-0.4,0-0.7,0.3-0.7,0.7c0,0.4,0.3,0.7,0.7,0.7c0.4,0,0.7-0.3,0.7-0.7 C59,129.9,58.7,129.6,58.3,129.6z"></path> <path class="st0" d="M43.9,115.2c-0.4,0-0.7,0.3-0.7,0.7c0,0.4,0.3,0.7,0.7,0.7c0.4,0,0.7-0.3,0.7-0.7 C44.6,115.5,44.3,115.2,43.9,115.2z"></path> <path class="st0" d="M58.3,115.2c-0.4,0-0.7,0.3-0.7,0.7c0,0.4,0.3,0.7,0.7,0.7c0.4,0,0.7-0.3,0.7-0.7 C59,115.5,58.7,115.2,58.3,115.2z"></path> <path class="st0" d="M36.7,122.4c-0.1,0-0.2,0-0.3,0.1c-0.3,0.1-0.4,0.4-0.4,0.7c0,0.3,0.2,0.6,0.4,0.7c0.1,0,0.2,0.1,0.3,0.1 c0.4,0,0.7-0.3,0.7-0.7C37.4,122.7,37.1,122.4,36.7,122.4z"></path> <path class="st0" d="M65.5,109.4c0.2,0,0.4-0.1,0.5-0.2s0.2-0.3,0.2-0.5c0-0.2-0.1-0.4-0.2-0.5c-0.1-0.1-0.3-0.2-0.5-0.2 c-0.4,0-0.7,0.3-0.7,0.7C64.8,109.1,65.1,109.4,65.5,109.4z"></path> <path class="st0" d="M51.1,109.4c0.4,0,0.7-0.3,0.7-0.7c0-0.4-0.3-0.7-0.7-0.7c-0.4,0-0.7,0.3-0.7,0.7 C50.4,109.1,50.7,109.4,51.1,109.4z"></path> <path class="st0" d="M36.4,8.6c0.1,0,0.2,0.1,0.3,0.1c0.4,0,0.7-0.3,0.7-0.7c0-0.4-0.3-0.7-0.7-0.7c-0.1,0-0.2,0-0.3,0.1 C36.2,7.4,36,7.6,36,7.9C36,8.2,36.2,8.5,36.4,8.6z"></path> <path class="st0" d="M22.3,7.2c-0.4,0-0.7,0.3-0.7,0.7c0,0.4,0.3,0.7,0.7,0.7c0.4,0,0.7-0.3,0.7-0.7C23,7.5,22.7,7.2,22.3,7.2z"></path> <path class="st0" d="M15.1,15.8c0.4,0,0.7-0.3,0.7-0.7c0-0.4-0.3-0.7-0.7-0.7c-0.4,0-0.7,0.3-0.7,0.7C14.4,15.5,14.7,15.8,15.1,15.8 z"></path> <path class="st0" d="M29.5,15.8c0.4,0,0.7-0.3,0.7-0.7c0-0.4-0.3-0.7-0.7-0.7c-0.4,0-0.7,0.3-0.7,0.7C28.8,15.5,29.1,15.8,29.5,15.8 z"></path> <path class="st0" d="M15.1,1.4c0.4,0,0.7-0.3,0.7-0.7c0-0.4-0.3-0.7-0.7-0.7c-0.4,0-0.7,0.3-0.7,0.7C14.4,1.1,14.7,1.4,15.1,1.4z"></path> <path class="st0" d="M29.5,1.4c0.4,0,0.7-0.3,0.7-0.7c0-0.4-0.3-0.7-0.7-0.7c-0.4,0-0.7,0.3-0.7,0.7C28.8,1.1,29.1,1.4,29.5,1.4z"></path> <path class="st0" d="M36.4,37.4c0.1,0,0.2,0.1,0.3,0.1c0.4,0,0.7-0.3,0.7-0.7c0-0.4-0.3-0.7-0.7-0.7c-0.1,0-0.2,0-0.3,0.1 c-0.3,0.1-0.4,0.4-0.4,0.7C36,37,36.2,37.3,36.4,37.4z"></path> <path class="st0" d="M22.3,36c-0.4,0-0.7,0.3-0.7,0.7c0,0.4,0.3,0.7,0.7,0.7c0.4,0,0.7-0.3,0.7-0.7C23,36.3,22.7,36,22.3,36z"></path> <path class="st0" d="M15.1,44.6c0.4,0,0.7-0.3,0.7-0.7c0-0.4-0.3-0.7-0.7-0.7c-0.4,0-0.7,0.3-0.7,0.7C14.4,44.3,14.7,44.6,15.1,44.6 z"></path> <path class="st0" d="M29.5,44.6c0.4,0,0.7-0.3,0.7-0.7c0-0.4-0.3-0.7-0.7-0.7c-0.4,0-0.7,0.3-0.7,0.7C28.8,44.3,29.1,44.6,29.5,44.6 z"></path> <path class="st0" d="M15.1,30.2c0.4,0,0.7-0.3,0.7-0.7c0-0.4-0.3-0.7-0.7-0.7c-0.4,0-0.7,0.3-0.7,0.7C14.4,29.9,14.7,30.2,15.1,30.2 z"></path> <path class="st0" d="M29.5,30.2c0.4,0,0.7-0.3,0.7-0.7c0-0.4-0.3-0.7-0.7-0.7c-0.4,0-0.7,0.3-0.7,0.7C28.8,29.9,29.1,30.2,29.5,30.2 z"></path> <path class="st0" d="M7.9,50.4c-0.1,0-0.2,0-0.3,0.1c-0.3,0.1-0.4,0.4-0.4,0.7c0,0.3,0.2,0.6,0.4,0.7c0.1,0,0.2,0.1,0.3,0.1 c0.4,0,0.7-0.3,0.7-0.7C8.6,50.7,8.3,50.4,7.9,50.4z"></path> <path class="st0" d="M36.4,23c0.1,0,0.2,0.1,0.3,0.1c0.4,0,0.7-0.3,0.7-0.7c0-0.1,0-0.2-0.1-0.3c-0.1-0.3-0.4-0.4-0.7-0.4 c-0.1,0-0.2,0-0.3,0.1c-0.2,0.1-0.3,0.2-0.4,0.4c0,0.1-0.1,0.2-0.1,0.3C36,22.6,36.2,22.9,36.4,23z"></path> <path class="st0" d="M22.3,23c0.4,0,0.7-0.3,0.7-0.7c0-0.1,0-0.2-0.1-0.3c-0.1-0.3-0.4-0.4-0.7-0.4c-0.3,0-0.6,0.2-0.7,0.4 c0,0.1-0.1,0.2-0.1,0.3C21.6,22.7,21.9,23,22.3,23z"></path> <path class="st0" d="M36.4,66.2c0.1,0,0.2,0.1,0.3,0.1c0.4,0,0.7-0.3,0.7-0.7c0-0.4-0.3-0.7-0.7-0.7c-0.1,0-0.2,0-0.3,0.1 C36.2,65,36,65.2,36,65.5C36,65.8,36.2,66.1,36.4,66.2z"></path> <path class="st0" d="M22.3,64.8c-0.4,0-0.7,0.3-0.7,0.7c0,0.4,0.3,0.7,0.7,0.7c0.4,0,0.7-0.3,0.7-0.7C23,65.1,22.7,64.8,22.3,64.8z"></path> <path class="st0" d="M15.1,73.4c0.4,0,0.7-0.3,0.7-0.7c0-0.4-0.3-0.7-0.7-0.7c-0.4,0-0.7,0.3-0.7,0.7C14.4,73.1,14.7,73.4,15.1,73.4 z"></path> <path class="st0" d="M29.5,73.4c0.4,0,0.7-0.3,0.7-0.7c0-0.4-0.3-0.7-0.7-0.7c-0.4,0-0.7,0.3-0.7,0.7C28.8,73.1,29.1,73.4,29.5,73.4 z"></path> <path class="st0" d="M15.1,59c0.4,0,0.7-0.3,0.7-0.7c0-0.4-0.3-0.7-0.7-0.7c-0.4,0-0.7,0.3-0.7,0.7C14.4,58.7,14.7,59,15.1,59z"></path> <path class="st0" d="M29.5,59c0.4,0,0.7-0.3,0.7-0.7c0-0.4-0.3-0.7-0.7-0.7c-0.4,0-0.7,0.3-0.7,0.7C28.8,58.7,29.1,59,29.5,59z"></path> <path class="st0" d="M22.3,51.8c0.4,0,0.7-0.3,0.7-0.7c0-0.4-0.3-0.7-0.7-0.7c-0.4,0-0.7,0.3-0.7,0.7C21.6,51.5,21.9,51.8,22.3,51.8 z"></path> <path class="st0" d="M36.4,95c0.1,0,0.2,0.1,0.3,0.1c0.4,0,0.7-0.3,0.7-0.7c0-0.4-0.3-0.7-0.7-0.7c-0.1,0-0.2,0-0.3,0.1 C36.2,93.8,36,94,36,94.3C36,94.6,36.2,94.9,36.4,95z"></path> <path class="st0" d="M22.3,93.6c-0.4,0-0.7,0.3-0.7,0.7c0,0.4,0.3,0.7,0.7,0.7c0.4,0,0.7-0.3,0.7-0.7C23,93.9,22.7,93.6,22.3,93.6z"></path> <path class="st0" d="M15.1,102.2c0.4,0,0.7-0.3,0.7-0.7c0-0.4-0.3-0.7-0.7-0.7c-0.4,0-0.7,0.3-0.7,0.7 C14.4,101.9,14.7,102.2,15.1,102.2z"></path> <path class="st0" d="M29.5,102.2c0.4,0,0.7-0.3,0.7-0.7c0-0.4-0.3-0.7-0.7-0.7c-0.4,0-0.7,0.3-0.7,0.7 C28.8,101.9,29.1,102.2,29.5,102.2z"></path> <path class="st0" d="M15.1,87.8c0.4,0,0.7-0.3,0.7-0.7c0-0.4-0.3-0.7-0.7-0.7c-0.4,0-0.7,0.3-0.7,0.7C14.4,87.5,14.7,87.8,15.1,87.8 z"></path> <path class="st0" d="M29.5,87.8c0.4,0,0.7-0.3,0.7-0.7c0-0.4-0.3-0.7-0.7-0.7c-0.4,0-0.7,0.3-0.7,0.7C28.8,87.5,29.1,87.8,29.5,87.8 z"></path> <path class="st0" d="M7.9,108c-0.1,0-0.2,0-0.3,0.1c-0.3,0.1-0.4,0.4-0.4,0.7c0,0.3,0.2,0.6,0.4,0.7c0.1,0,0.2,0.1,0.3,0.1 c0.4,0,0.7-0.3,0.7-0.7C8.6,108.3,8.3,108,7.9,108z"></path> <path class="st0" d="M36.4,80.6c0.1,0,0.2,0.1,0.3,0.1c0.4,0,0.7-0.3,0.7-0.7c0-0.1,0-0.2-0.1-0.3c-0.1-0.3-0.4-0.4-0.7-0.4 c-0.1,0-0.2,0-0.3,0.1c-0.2,0.1-0.3,0.2-0.4,0.4c0,0.1-0.1,0.2-0.1,0.3C36,80.2,36.2,80.5,36.4,80.6z"></path> <path class="st0" d="M22.3,80.6c0.4,0,0.7-0.3,0.7-0.7c0-0.1,0-0.2-0.1-0.3c-0.1-0.3-0.4-0.4-0.7-0.4c-0.3,0-0.6,0.2-0.7,0.4 c0,0.1-0.1,0.2-0.1,0.3C21.6,80.3,21.9,80.6,22.3,80.6z"></path> <path class="st0" d="M22.3,122.4c-0.4,0-0.7,0.3-0.7,0.7c0,0.4,0.3,0.7,0.7,0.7c0.4,0,0.7-0.3,0.7-0.7 C23,122.7,22.7,122.4,22.3,122.4z"></path> <path class="st0" d="M15.1,129.6c-0.4,0-0.7,0.3-0.7,0.7c0,0.4,0.3,0.7,0.7,0.7c0.4,0,0.7-0.3,0.7-0.7 C15.8,129.9,15.5,129.6,15.1,129.6z"></path> <path class="st0" d="M29.5,129.6c-0.4,0-0.7,0.3-0.7,0.7c0,0.4,0.3,0.7,0.7,0.7c0.4,0,0.7-0.3,0.7-0.7 C30.2,129.9,29.9,129.6,29.5,129.6z"></path> <path class="st0" d="M15.1,115.2c-0.4,0-0.7,0.3-0.7,0.7c0,0.4,0.3,0.7,0.7,0.7c0.4,0,0.7-0.3,0.7-0.7 C15.8,115.5,15.5,115.2,15.1,115.2z"></path> <path class="st0" d="M29.5,115.2c-0.4,0-0.7,0.3-0.7,0.7c0,0.4,0.3,0.7,0.7,0.7c0.4,0,0.7-0.3,0.7-0.7 C30.2,115.5,29.9,115.2,29.5,115.2z"></path> <path class="st0" d="M7.9,122.4c-0.1,0-0.2,0-0.3,0.1c-0.3,0.1-0.4,0.4-0.4,0.7c0,0.3,0.2,0.6,0.4,0.7c0.1,0,0.2,0.1,0.3,0.1 c0.4,0,0.7-0.3,0.7-0.7C8.6,122.7,8.3,122.4,7.9,122.4z"></path> <path class="st0" d="M22.3,109.4c0.4,0,0.7-0.3,0.7-0.7c0-0.4-0.3-0.7-0.7-0.7c-0.4,0-0.7,0.3-0.7,0.7 C21.6,109.1,21.9,109.4,22.3,109.4z"></path> <path class="st0" d="M7.6,8.6c0.1,0,0.2,0.1,0.3,0.1c0.4,0,0.7-0.3,0.7-0.7c0-0.4-0.3-0.7-0.7-0.7c-0.1,0-0.2,0-0.3,0.1 C7.4,7.4,7.2,7.6,7.2,7.9C7.2,8.2,7.4,8.5,7.6,8.6z"></path> <path class="st0" d="M0.7,15.8c0.4,0,0.7-0.3,0.7-0.7c0-0.4-0.3-0.7-0.7-0.7c-0.4,0-0.7,0.3-0.7,0.7C0,15.5,0.3,15.8,0.7,15.8z"></path> <path class="st0" d="M0.7,1.4c0.4,0,0.7-0.3,0.7-0.7C1.4,0.3,1.1,0,0.7,0C0.3,0,0,0.3,0,0.7C0,1.1,0.3,1.4,0.7,1.4z"></path> <path class="st0" d="M7.6,37.4c0.1,0,0.2,0.1,0.3,0.1c0.4,0,0.7-0.3,0.7-0.7c0-0.4-0.3-0.7-0.7-0.7c-0.1,0-0.2,0-0.3,0.1 c-0.3,0.1-0.4,0.4-0.4,0.7C7.2,37,7.4,37.3,7.6,37.4z"></path> <path class="st0" d="M0.7,44.6c0.4,0,0.7-0.3,0.7-0.7c0-0.4-0.3-0.7-0.7-0.7c-0.4,0-0.7,0.3-0.7,0.7C0,44.3,0.3,44.6,0.7,44.6z"></path> <path class="st0" d="M0.7,30.2c0.4,0,0.7-0.3,0.7-0.7c0-0.4-0.3-0.7-0.7-0.7c-0.4,0-0.7,0.3-0.7,0.7C0,29.9,0.3,30.2,0.7,30.2z"></path> <path class="st0" d="M7.6,23C7.7,23,7.8,23,7.9,23c0.4,0,0.7-0.3,0.7-0.7c0-0.1,0-0.2-0.1-0.3c-0.1-0.3-0.4-0.4-0.7-0.4 c-0.1,0-0.2,0-0.3,0.1c-0.2,0.1-0.3,0.2-0.4,0.4c0,0.1-0.1,0.2-0.1,0.3C7.2,22.6,7.4,22.9,7.6,23z"></path> <path class="st0" d="M7.6,66.2c0.1,0,0.2,0.1,0.3,0.1c0.4,0,0.7-0.3,0.7-0.7c0-0.4-0.3-0.7-0.7-0.7c-0.1,0-0.2,0-0.3,0.1 c-0.3,0.1-0.4,0.4-0.4,0.7C7.2,65.8,7.4,66.1,7.6,66.2z"></path> <path class="st0" d="M0.7,73.4c0.4,0,0.7-0.3,0.7-0.7c0-0.4-0.3-0.7-0.7-0.7C0.3,72,0,72.3,0,72.7C0,73.1,0.3,73.4,0.7,73.4z"></path> <path class="st0" d="M0.7,59c0.4,0,0.7-0.3,0.7-0.7c0-0.4-0.3-0.7-0.7-0.7c-0.4,0-0.7,0.3-0.7,0.7C0,58.7,0.3,59,0.7,59z"></path> <path class="st0" d="M7.6,95C7.7,95,7.8,95,7.9,95c0.4,0,0.7-0.3,0.7-0.7c0-0.4-0.3-0.7-0.7-0.7c-0.1,0-0.2,0-0.3,0.1 c-0.3,0.1-0.4,0.4-0.4,0.7C7.2,94.6,7.4,94.9,7.6,95z"></path> <path class="st0" d="M0.7,102.2c0.4,0,0.7-0.3,0.7-0.7c0-0.4-0.3-0.7-0.7-0.7c-0.4,0-0.7,0.3-0.7,0.7C0,101.9,0.3,102.2,0.7,102.2z"></path> <path class="st0" d="M0.7,87.8c0.4,0,0.7-0.3,0.7-0.7c0-0.4-0.3-0.7-0.7-0.7c-0.4,0-0.7,0.3-0.7,0.7C0,87.5,0.3,87.8,0.7,87.8z"></path> <path class="st0" d="M7.6,80.6c0.1,0,0.2,0.1,0.3,0.1c0.4,0,0.7-0.3,0.7-0.7c0-0.1,0-0.2-0.1-0.3c-0.1-0.3-0.4-0.4-0.7-0.4 c-0.1,0-0.2,0-0.3,0.1c-0.2,0.1-0.3,0.2-0.4,0.4c0,0.1-0.1,0.2-0.1,0.3C7.2,80.2,7.4,80.5,7.6,80.6z"></path> <path class="st0" d="M0.7,129.6c-0.4,0-0.7,0.3-0.7,0.7c0,0.4,0.3,0.7,0.7,0.7c0.4,0,0.7-0.3,0.7-0.7C1.4,129.9,1.1,129.6,0.7,129.6 z"></path> <path class="st0" d="M0.7,115.2c-0.4,0-0.7,0.3-0.7,0.7c0,0.4,0.3,0.7,0.7,0.7c0.4,0,0.7-0.3,0.7-0.7C1.4,115.5,1.1,115.2,0.7,115.2 z"></path> </svg> 