<?xml version="1.0" encoding="UTF-8"?> <!-- Generator: Adobe Illustrator 21.0.2, SVG Export Plug-In . SVG Version: 6.00 Build 0) --> <svg xmlns="http://www.w3.org/2000/svg" xmlns:xlink="http://www.w3.org/1999/xlink" id="Layer_1" x="0px" y="0px" viewBox="0 0 123.8 16.4" style="enable-background:new 0 0 123.8 16.4;" xml:space="preserve"> <style type="text/css"> .st0{fill:#4DCCC4;} .st1{fill:#F594BD;} </style> <g> <path class="st0" d="M69.8,7.1c-1,0-1.7-0.8-1.7-1.7c0-0.9,0.7-1.7,1.6-1.7c1,0,1.7,0.8,1.7,1.7C71.5,6.4,70.8,7.1,69.8,7.1 M69.8,2.6c-1.7,0-2.9,1.3-2.9,2.8c0,1.6,1.2,2.8,2.9,2.8c1.7,0,2.9-1.3,2.9-2.8C72.7,3.9,71.5,2.6,69.8,2.6"></path> <path class="st0" d="M76.5,7.1c-0.9,0-1.6-0.8-1.6-1.7c0-1,0.7-1.7,1.6-1.7c0.6,0,1,0.2,1.4,0.6l0.7-0.8c-0.5-0.5-1.1-0.9-2.1-0.9 c-1.7,0-2.8,1.3-2.8,2.8c0,1.6,1.2,2.8,2.8,2.8c1.1,0,1.7-0.3,2.2-0.9l-0.8-0.8C77.5,6.9,77.1,7.1,76.5,7.1"></path> <path class="st0" d="M88.7,5.7H90c0.6,0,0.8,0.2,0.8,0.6c0,0.5-0.3,0.7-0.8,0.7h-1.3V5.7z M92,6.4c0-1-0.7-1.7-1.9-1.7h-1.4v-1h3 V2.7h-4.2v5.5H90C91.3,8.1,92,7.5,92,6.4"></path> <path class="st0" d="M95.8,7.1c-1,0-1.7-0.8-1.7-1.7c0-1,0.7-1.7,1.6-1.7c1,0,1.7,0.8,1.7,1.7C97.4,6.4,96.7,7.1,95.8,7.1 M98.6,5.4c0-1.6-1.2-2.8-2.9-2.8c-1.7,0-2.9,1.3-2.9,2.8c0,1.6,1.2,2.8,2.9,2.8C97.4,8.2,98.6,7,98.6,5.4"></path> <polygon class="st0" points="103.6,2.7 99.8,2.7 99.8,8.1 101,8.1 101,3.8 103.6,3.8 "></polygon> <path class="st0" d="M107,7.1c-1,0-1.7-0.8-1.7-1.7c0-1,0.7-1.7,1.6-1.7c1,0,1.7,0.8,1.7,1.7C108.6,6.4,107.9,7.1,107,7.1 M109.8,5.4c0-1.6-1.2-2.8-2.9-2.8c-1.7,0-2.9,1.3-2.9,2.8c0,1.6,1.2,2.8,2.9,2.8C108.6,8.2,109.8,7,109.8,5.4"></path> <polygon class="st0" points="70.6,13 68.4,13 68.4,10.8 67.2,10.8 67.2,16.3 68.4,16.3 68.4,14.1 70.6,14.1 70.6,16.3 71.8,16.3 71.8,10.8 70.6,10.8 "></polygon> <path class="st0" d="M74.8,14l0.7-1.8l0.7,1.8H74.8z M75,10.8l-2.3,5.5h1.2l0.5-1.2h2.3l0.5,1.2h1.3l-2.3-5.5H75z"></path> <path class="st0" d="M82.3,13.4c0.5-0.2,0.9-0.6,0.9-1.3c0-0.8-0.8-1.5-2-1.5c-1,0-1.7,0.4-2.2,0.9l0.6,0.8 c0.4-0.4,0.8-0.6,1.5-0.6c0.5,0,0.9,0.2,0.9,0.6c0,0.4-0.3,0.6-1,0.6h-0.6v1H81c0.6,0,1.1,0.2,1.1,0.6c0,0.4-0.4,0.7-0.9,0.7 c-0.7,0-1.3-0.3-1.7-0.7l-0.6,0.8c0.6,0.6,1.3,0.9,2.4,0.9c1.3,0,2.1-0.7,2.1-1.6C83.3,14,82.8,13.6,82.3,13.4"></path> <polygon class="st0" points="87.8,13 85.6,13 85.6,10.8 84.4,10.8 84.4,16.3 85.6,16.3 85.6,14.1 87.8,14.1 87.8,16.3 89,16.3 89,10.8 87.8,10.8 "></polygon> <path class="st0" d="M92.1,14l0.7-1.8l0.7,1.8H92.1z M92.3,10.8l-2.3,5.5h1.2l0.5-1.2H94l0.5,1.2h1.3l-2.3-5.5H92.3z"></path> <path class="st0" d="M99.5,13.2c-0.2,0.2-0.7,0.4-1.2,0.4c-0.6,0-0.9-0.4-0.9-1.1v-1.6h-1.2v2c0,1.3,0.7,1.8,1.8,1.8 c0.6,0,1.1-0.2,1.4-0.4v2h1.2v-5.5h-1.2V13.2z"></path> <polygon class="st0" points="103.3,14.1 105.8,14.1 105.8,13 103.3,13 103.3,11.9 106.2,11.9 106.2,10.8 102.1,10.8 102.1,16.3 106.2,16.3 106.2,15.2 103.3,15.2 "></polygon> <polygon class="st0" points="110.8,13 108.6,13 108.6,10.8 107.4,10.8 107.4,16.3 108.6,16.3 108.6,14.1 110.8,14.1 110.8,16.3 112,16.3 112,10.8 110.8,10.8 "></polygon> <polygon class="st0" points="114.5,14.4 114.5,10.8 113.4,10.8 113.4,16.3 114.5,16.3 116.9,12.7 116.9,16.3 118,16.3 118,10.8 116.9,10.8 "></polygon> <path class="st0" d="M122.5,13.5h-1.2c-0.6,0-0.9-0.3-0.9-0.8c0-0.5,0.4-0.8,0.9-0.8h1.2V13.5z M121.3,10.8c-1.3,0-2.1,0.7-2.1,1.8 c0,0.9,0.5,1.4,1.2,1.7l-1.3,1.9h1.4l1.2-1.7h0.9v1.7h1.2v-5.5H121.3z"></path> <polygon class="st1" points="9.6,7.8 2.6,7.8 2.6,1.7 0,1.7 0,16.4 2.6,16.4 2.6,10.2 9.6,10.2 9.6,16.4 12.1,16.4 12.1,1.7 9.6,1.7 "></polygon> <path class="st1" d="M18.4,7.6c0-1.2,1.2-1.6,2.6-1.6c0-1.5,0.4-2.6,1.6-2.6c1.2,0,1.9,0.9,1.9,2.3v3.8h-3.8 C19.3,9.5,18.4,8.7,18.4,7.6 M15.3,6.4c0,2.4,1.4,3.9,3.5,4.5l-4,5.5h3l3.6-5.1h3.2v5.1h2.6V1.7h-6.5C17.4,1.7,15.3,3.6,15.3,6.4"></path> <polygon class="st1" points="40.6,7.8 33.6,7.8 33.6,1.7 31,1.7 31,16.4 33.6,16.4 33.6,10.2 40.6,10.2 40.6,16.4 43.2,16.4 43.2,1.7 40.6,1.7 "></polygon> <polygon class="st1" points="49.5,12.4 49.5,1.7 46.9,1.7 46.9,16.4 49.4,16.4 56.7,5.7 56.7,16.4 59.3,16.4 59.3,1.7 56.9,1.7 "></polygon> <path class="st1" d="M82.9,8.3l2.5-2.5c0.9-0.9,1-2,0.3-2.8c-0.8-0.8-1.8-0.3-2.8,0.7c-1-1-2-1.5-2.8-0.7c-0.8,0.8-0.7,1.9,0.3,2.8 L82.9,8.3z"></path> </g> </svg> 