<?xml version="1.0" encoding="UTF-8"?> <svg xmlns="http://www.w3.org/2000/svg" viewBox="0 0 123 121"> <defs> <style>.cls-1{fill:#fce2ed;}.cls-2{fill:#292f36;}</style> </defs> <title>3</title> <g id="Layer_1" data-name="Layer 1"> <circle class="cls-1" cx="61.33" cy="60.89" r="58.45"></circle> </g> <g id="Layer_2" data-name="Layer 2"> <path class="cls-2" d="M73.27,57.74a11.34,11.34,0,0,1,3.06,8.1,12.39,12.39,0,0,1-1.86,6.66,12.79,12.79,0,0,1-5.61,4.77A21.33,21.33,0,0,1,59.71,79,29.17,29.17,0,0,1,51,77.75a22.17,22.17,0,0,1-7.11-3.57l3.36-6.06a17,17,0,0,0,5.55,3,20.86,20.86,0,0,0,6.75,1.11,10.94,10.94,0,0,0,6.51-1.71,5.43,5.43,0,0,0,2.37-4.65,5.37,5.37,0,0,0-2.25-4.59Q64,59.66,59.35,59.66H55.51V54.32L65.05,43H46V36.44H74.59v5.22L64.39,53.78Q70.21,54.5,73.27,57.74Z"></path> </g> </svg> 