<?xml version="1.0" encoding="UTF-8"?> <!-- Generator: Adobe Illustrator 21.0.2, SVG Export Plug-In . SVG Version: 6.00 Build 0) --> <svg xmlns="http://www.w3.org/2000/svg" xmlns:xlink="http://www.w3.org/1999/xlink" id="Layer_1" x="0px" y="0px" viewBox="0 0 123 121" style="enable-background:new 0 0 123 121;" xml:space="preserve"> <style type="text/css"> .st0{fill:#FFFFFF;} .st1{fill:#FEE474;} .st2{fill:#292F36;} </style> <title>quest</title> <g id="Layer_1_1_"> <circle class="st0" cx="61.5" cy="60.4" r="58.5"></circle> </g> <polygon class="st1" points="21.4,72.2 22.5,58.3 35.2,58.3 35.2,71 "></polygon> <path class="st1" d="M83.6,59.9h-0.8c-3.3,8.4-10.2,14.9-18.9,17.4c-0.1,0.8-0.1,1.6-0.2,2.4c0,10.9,8.9,19.8,19.8,19.8 s19.8-8.9,19.8-19.8S94.5,59.9,83.6,59.9C83.6,59.9,83.6,59.9,83.6,59.9z"></path> <path class="st1" d="M51.4,13.3c-17.5,0-31.7,14.2-31.7,31.7s14.2,31.7,31.7,31.7c17.5,0,31.7-14.2,31.7-31.7 C83.1,27.5,69,13.3,51.4,13.3C51.4,13.3,51.4,13.3,51.4,13.3z"></path> <polygon class="st1" points="102.3,96.8 101.6,88.1 93.7,88.1 93.7,96 "></polygon> <path class="st2" d="M65.1,61.6H37.8c-1.7,0-3.1-1.4-3.1-3.1c-0.1-1.7,1.2-3,2.9-3.1c0.1,0,0.1,0,0.2,0h27.3c1.7,0,3.1,1.4,3.1,3.1 C68.2,60.3,66.8,61.7,65.1,61.6L65.1,61.6z M65.1,48H37.8c-1.7,0-3.1-1.4-3.1-3.1c0-1.7,1.4-3.1,3.1-3.1l0,0h27.3 c1.7,0,3.1,1.4,3.1,3.1C68.2,46.6,66.8,48,65.1,48z M65.1,34.5H37.8c-1.7,0-3.1-1.4-3.1-3.1c-0.1-1.7,1.2-3,2.9-3.1 c0.1,0,0.1,0,0.2,0h27.3c1.7,0,3.1,1.4,3.1,3.1C68.2,33.1,66.8,34.5,65.1,34.5L65.1,34.5z"></path> <path class="st2" d="M83.9,91.5c-1.3,0-2.4-1.1-2.4-2.4s1.1-2.4,2.4-2.4c1.3,0,2.4,1.1,2.4,2.4C86.3,90.5,85.2,91.5,83.9,91.5z"></path> <path class="st2" d="M89.8,78.7c-0.7,1-1.6,1.8-2.7,2.5c-0.8,0.4-1.4,1.3-1.3,2.2c0,0.5-0.4,0.9-0.9,0.9c0,0,0,0-0.1,0H83 c-0.3,0-0.6-0.1-0.7-0.4c-0.3-0.1-0.4-0.4-0.4-0.7c0.3-3.1,1.4-4.2,2.9-5.3c0.7-0.4,1.3-1,1.8-1.6c0.6-0.9,0.7-2,0.2-2.9 c-1.1-1.8-3.5-2.3-5.2-1.2c-0.9,0.6-1.5,1.4-1.7,2.5c-0.1,0.5-0.5,0.9-1,0.9h-1.7c-0.3,0-0.6-0.1-0.8-0.4c-0.2-0.2-0.3-0.5-0.3-0.8 c0.4-3.9,3.7-6.7,7.6-6.5c2.8-0.1,5.4,1.4,6.7,3.8C91.5,74,91.2,76.7,89.8,78.7z"></path> </svg> 