<?xml version="1.0" encoding="UTF-8"?> <svg xmlns="http://www.w3.org/2000/svg" id="design" viewBox="0 0 123 121"> <defs> <style>.cls-1{fill:#4dcdc4;}.cls-2{fill:#292f36;}</style> </defs> <title>6</title> <rect class="cls-1" x="0.04" y="79.36" width="123" height="41.5"></rect> <path class="cls-2" d="M74.81,9.38l7.56,14c-12.77,4.34-23.56,13-28.64,24.92C57.45,44.84,61.91,43.6,69,43.6c12.4,0,23.93,10.54,23.93,26.41,0,19.34-15,29.14-29.26,29.14-19.34,0-32-14.51-32-32.24C31.66,35,56.09,14.34,74.81,9.38Zm-11,71.17c6.57,0,9.3-4.71,9.3-9.18,0-6-3.6-10.42-10.54-10.42A13,13,0,0,0,51.5,67C51.5,75.22,56,80.55,63.77,80.55Z"></path> </svg> 