<?xml version="1.0" encoding="UTF-8"?> <svg xmlns="http://www.w3.org/2000/svg" viewBox="0 0 123 121"> <defs> <style>.cls-1{fill:#fde474;}.cls-2{fill:#292f36;}</style> </defs> <title>2</title> <g id="Layer_1" data-name="Layer 1"> <circle class="cls-1" cx="61.33" cy="60.89" r="58.45"></circle> </g> <g id="Layer_2" data-name="Layer 2"> <path class="cls-2" d="M76.93,71.84v6.6H46V73.22L62.65,57.38a18.33,18.33,0,0,0,3.81-4.71,9,9,0,0,0,1-4,5.39,5.39,0,0,0-2-4.5,9.26,9.26,0,0,0-5.82-1.56q-6.42,0-9.84,4.38l-5.46-4.2A16.17,16.17,0,0,1,51,37.67a23,23,0,0,1,9.33-1.83q6.84,0,10.92,3.24a10.66,10.66,0,0,1,4.08,8.82,14.65,14.65,0,0,1-1.44,6.42,25.06,25.06,0,0,1-5.52,6.84L57.13,71.84Z"></path> </g> </svg> 