<?xml version="1.0" encoding="UTF-8"?> <svg xmlns="http://www.w3.org/2000/svg" id="design" viewBox="0 0 123 121"> <defs> <style>.cls-1{fill:#4dcdc4;}.cls-2{fill:#292f36;}</style> </defs> <title>3</title> <rect class="cls-1" x="0.04" y="79.36" width="123" height="41.5"></rect> <path class="cls-2" d="M30.11,84.76,40.4,71c4.34,5,9.8,9.55,17.11,9.55,7.56,0,10.91-4,10.91-8.43,0-6.57-5.08-9.55-14.75-9.55H48.21V44h5c6.57,0,11.9-2.73,11.9-8.68C65.08,31.57,63,28,57.14,28c-5.33,0-10.17,1.86-15,7.81L32,22.4c5.33-8.56,14.63-13,26.91-13,15.25,0,26,8.56,26,22.19,0,10.29-4.22,16.37-12.9,20.33v.37c10.66,2.11,16.24,10.17,16.24,20.58,0,16.37-12.9,26.29-29.51,26.29C44.25,99.15,34.7,92.58,30.11,84.76Z"></path> </svg> 