<?xml version="1.0" encoding="UTF-8"?> <svg xmlns="http://www.w3.org/2000/svg" viewBox="0 0 123 121"> <defs> <style>.cls-1{fill:#fce2ed;}.cls-2{fill:#292f36;}</style> </defs> <title>5</title> <g id="Layer_1" data-name="Layer 1"> <circle class="cls-1" cx="60.61" cy="60.89" r="58.45"></circle> </g> <g id="Layer_2" data-name="Layer 2"> <path class="cls-2" d="M72,56.15a11.44,11.44,0,0,1,4.26,9.39,12.48,12.48,0,0,1-7.44,11.7A21,21,0,0,1,59.65,79,29.46,29.46,0,0,1,51,77.75a21.4,21.4,0,0,1-7.08-3.57l3.3-6.06a17.73,17.73,0,0,0,5.61,3,20.86,20.86,0,0,0,6.75,1.11A10.94,10.94,0,0,0,66,70.55a5.92,5.92,0,0,0-.18-9.6q-2.55-1.65-8.73-1.65H47l2.16-22.86H73.81V43H55.75l-.9,9.72h4Q67.75,52.7,72,56.15Z"></path> </g> </svg> 