<?xml version="1.0" encoding="UTF-8"?> <svg xmlns="http://www.w3.org/2000/svg" viewBox="0 0 123 121"> <defs> <style>.cls-1{fill:#fde474;}.cls-2{fill:#292f36;}</style> </defs> <title>6</title> <g id="grids"> <g id="Layer_1" data-name="Layer 1"> <circle class="cls-1" cx="61.5" cy="60.5" r="58.45"></circle> </g> <path class="cls-2" d="M45.29,60.78c0-12.63,6.34-24.4,19.58-24.4a17,17,0,0,1,9.64,2.75v7.93a15,15,0,0,0-8.66-2.75,10.75,10.75,0,0,0-8.3,3.29,13.25,13.25,0,0,0-3.36,8.3c2.26-2.62,5.55-4,9.94-4a13.59,13.59,0,0,1,9.76,3.78c2.62,2.5,3.9,5.8,3.9,10a14.17,14.17,0,0,1-4.45,10.86,15.28,15.28,0,0,1-11,4.21C51.58,80.79,45.29,73.22,45.29,60.78ZM69.09,65.9a7,7,0,0,0-7.32-7.14A8.64,8.64,0,0,0,54,64.13c.24,5.79,3.17,9.09,7.81,9.09A7,7,0,0,0,69.09,65.9Z"></path> </g> </svg> 