<?xml version="1.0" encoding="UTF-8"?> <!-- Generator: Adobe Illustrator 23.0.4, SVG Export Plug-In . SVG Version: 6.00 Build 0) --> <svg xmlns="http://www.w3.org/2000/svg" xmlns:xlink="http://www.w3.org/1999/xlink" id="Layer_1" x="0px" y="0px" viewBox="0 0 73.2 15.8" style="enable-background:new 0 0 73.2 15.8;" xml:space="preserve"> <path d="M65.2,7.2c-0.4,0-0.7,0.3-0.7,0.7c0,0.4,0.3,0.7,0.7,0.7c0.4,0,0.7-0.3,0.7-0.7C66,7.5,65.6,7.2,65.2,7.2z"></path> <path d="M58,15.8c0.4,0,0.7-0.3,0.7-0.7c0-0.4-0.3-0.7-0.7-0.7c-0.4,0-0.7,0.3-0.7,0.7C57.3,15.5,57.6,15.8,58,15.8z"></path> <path d="M72.4,15.8c0.4,0,0.7-0.3,0.7-0.7c0-0.4-0.3-0.7-0.7-0.7c-0.4,0-0.7,0.3-0.7,0.7C71.7,15.5,72,15.8,72.4,15.8z"></path> <path d="M58,1.4c0.4,0,0.7-0.3,0.7-0.7C58.8,0.3,58.4,0,58,0c-0.4,0-0.7,0.3-0.7,0.7C57.3,1.1,57.6,1.4,58,1.4z"></path> <path d="M72.4,1.4c0.4,0,0.7-0.3,0.7-0.7c0-0.4-0.3-0.7-0.7-0.7c-0.4,0-0.7,0.3-0.7,0.7C71.7,1.1,72,1.4,72.4,1.4z"></path> <path d="M50.6,8.6c0.1,0,0.2,0.1,0.3,0.1c0.4,0,0.7-0.3,0.7-0.7c0-0.4-0.3-0.7-0.7-0.7c-0.1,0-0.2,0-0.3,0.1 c-0.3,0.1-0.4,0.4-0.4,0.7C50.1,8.2,50.3,8.5,50.6,8.6z"></path> <path d="M36.4,7.2c-0.4,0-0.7,0.3-0.7,0.7c0,0.4,0.3,0.7,0.7,0.7c0.4,0,0.7-0.3,0.7-0.7C37.2,7.5,36.8,7.2,36.4,7.2z"></path> <path d="M29.2,15.8c0.4,0,0.7-0.3,0.7-0.7c0-0.4-0.3-0.7-0.7-0.7c-0.4,0-0.7,0.3-0.7,0.7C28.5,15.5,28.8,15.8,29.2,15.8z"></path> <path d="M43.6,15.8c0.4,0,0.7-0.3,0.7-0.7c0-0.4-0.3-0.7-0.7-0.7c-0.4,0-0.7,0.3-0.7,0.7C42.9,15.5,43.2,15.8,43.6,15.8z"></path> <path d="M29.2,1.4c0.4,0,0.7-0.3,0.7-0.7C30,0.3,29.6,0,29.2,0c-0.4,0-0.7,0.3-0.7,0.7C28.5,1.1,28.8,1.4,29.2,1.4z"></path> <path d="M43.6,1.4c0.4,0,0.7-0.3,0.7-0.7C44.4,0.3,44,0,43.6,0c-0.4,0-0.7,0.3-0.7,0.7C42.9,1.1,43.2,1.4,43.6,1.4z"></path> <path d="M21.8,8.6c0.1,0,0.2,0.1,0.3,0.1c0.4,0,0.7-0.3,0.7-0.7c0-0.4-0.3-0.7-0.7-0.7c-0.1,0-0.2,0-0.3,0.1 c-0.3,0.1-0.4,0.4-0.4,0.7C21.3,8.2,21.5,8.5,21.8,8.6z"></path> <path d="M7.6,7.2c-0.4,0-0.7,0.3-0.7,0.7c0,0.4,0.3,0.7,0.7,0.7c0.4,0,0.7-0.3,0.7-0.7C8.4,7.5,8,7.2,7.6,7.2z"></path> <path d="M1.2,15.1c0-0.4-0.3-0.7-0.7-0.7c-0.2,0-0.3,0.1-0.4,0.2v1.1c0.1,0.1,0.3,0.2,0.4,0.2C0.8,15.8,1.2,15.5,1.2,15.1z"></path> <path d="M14.8,15.8c0.4,0,0.7-0.3,0.7-0.7c0-0.4-0.3-0.7-0.7-0.7c-0.4,0-0.7,0.3-0.7,0.7C14.1,15.5,14.4,15.8,14.8,15.8z"></path> <path d="M1.2,0.7C1.2,0.3,0.8,0,0.4,0C0.3,0,0.1,0.1,0,0.2v1.1c0.1,0.1,0.3,0.2,0.4,0.2C0.8,1.4,1.2,1.1,1.2,0.7z"></path> <path d="M14.8,1.4c0.4,0,0.7-0.3,0.7-0.7c0-0.4-0.3-0.7-0.7-0.7c-0.4,0-0.7,0.3-0.7,0.7C14.1,1.1,14.4,1.4,14.8,1.4z"></path> </svg> 