<?xml version="1.0" encoding="UTF-8"?> <svg xmlns="http://www.w3.org/2000/svg" id="design" viewBox="0 0 236 236"> <defs> <style>.cls-1{fill:#4dcdc4;}.cls-2{fill:#fff;}</style> </defs> <title>heart</title> <path class="cls-1" d="M118,0h0A118,118,0,0,1,236,118h0A118,118,0,0,1,118,236h0A118,118,0,0,1,0,118H0A118,118,0,0,1,118,0Z"></path> <path class="cls-2" d="M118,194.32l58-58c21.11-21.12,23.51-46.06,6-63.57-18.24-18.24-42-6.52-64.07,15.56C95.92,66.2,72.17,54.41,53.93,72.65c-17.51,17.51-15.11,42.46,6,63.57Z"></path> </svg> 