<?xml version="1.0" encoding="UTF-8"?> <svg xmlns="http://www.w3.org/2000/svg" viewBox="0 0 299.9 299.9"> <defs> <style>.cls-1{fill:#4dcdc4;}.cls-2{fill:#fff;}.cls-3,.cls-5,.cls-6{fill:none;}.cls-3{stroke:#fff;stroke-linecap:round;stroke-linejoin:round;stroke-width:2.98px;}.cls-4{fill:#292f36;}.cls-5,.cls-6{stroke:#292f36;stroke-miterlimit:10;}.cls-5{stroke-width:3px;}.cls-6{stroke-width:10px;}</style> </defs> <title>law</title> <g id="grids"> <path class="cls-1" d="M149.95,0h0A150,150,0,0,1,299.9,149.95h0A150,150,0,0,1,149.95,299.9h0A150,150,0,0,1,0,149.95H0A150,150,0,0,1,149.95,0Z"></path> <path class="cls-2" d="M213.05,206a33.24,33.24,0,0,0,33.56-33.56H179.49A33.24,33.24,0,0,0,213.05,206Z"></path> <polyline class="cls-3" points="241.12 174.87 213.05 108.02 184.99 174.87"></polyline> <path class="cls-4" d="M86.84,167.57A33.43,33.43,0,0,0,120.41,134H53.28A33.43,33.43,0,0,0,86.84,167.57Z"></path> <polyline class="cls-5" points="114.91 136.31 86.84 69.45 58.78 136.31"></polyline> <line class="cls-6" x1="70.08" y1="65.25" x2="230.25" y2="113.48"></line> <line class="cls-6" x1="149.95" y1="79.66" x2="149.95" y2="224.42"></line> <rect class="cls-4" x="114.55" y="222.61" width="70.8" height="12.03"></rect> </g> </svg> 