<?xml version="1.0" encoding="UTF-8"?> <svg xmlns="http://www.w3.org/2000/svg" viewBox="0 0 299.9 299.9"> <defs> <style>.cls-1{fill:#fee474;}.cls-2{fill:#292f36;}.cls-3{fill:#e6e6e6;}.cls-4{fill:#fff;}.cls-5{fill:#f693bc;}</style> </defs> <title>med</title> <g id="grids"> <path class="cls-1" d="M149.95,0h0A150,150,0,0,1,299.9,149.95h0A150,150,0,0,1,149.95,299.9h0A150,150,0,0,1,0,149.95H0A150,150,0,0,1,149.95,0Z"></path> <polygon class="cls-2" points="192.95 251.72 183.7 242.46 174.44 251.72 174.44 225.55 192.95 225.55 192.95 251.72"></polygon> <polygon class="cls-3" points="81.97 66.44 72.51 75.17 81.97 78.73 81.97 217.13 211.07 226.39 220.75 217.13 220.75 66.44 94.26 66.44 81.97 66.44"></polygon> <polygon class="cls-4" points="72.29 75.38 72.29 87.67 72.29 226.07 211.07 226.07 211.07 75.38 84.57 75.38 72.29 75.38"></polygon> <rect class="cls-5" x="115.07" y="135.94" width="56.12" height="23.32"></rect> <rect class="cls-5" x="115.07" y="135.94" width="56.12" height="23.32" transform="translate(-4.48 290.74) rotate(-90)"></rect> </g> </svg> 