<?xml version="1.0" encoding="UTF-8"?> <svg xmlns="http://www.w3.org/2000/svg" viewBox="0 0 299.9 299.9"> <defs> <style>.cls-1{fill:#f693bc;}.cls-2{fill:#e6e6e6;}.cls-3{fill:#fff;}.cls-4{fill:#292f36;}</style> </defs> <title>pass</title> <g id="grids"> <path class="cls-1" d="M149.95,0h0A150,150,0,0,1,299.9,149.95h0A150,150,0,0,1,149.95,299.9h0A150,150,0,0,1,0,149.95H0A150,150,0,0,1,149.95,0Z"></path> <polygon class="cls-2" points="81.97 66.44 72.51 75.17 81.97 78.73 81.97 217.13 211.07 226.39 220.75 217.13 220.75 66.44 94.26 66.44 81.97 66.44"></polygon> <polygon class="cls-3" points="72.29 75.38 72.29 87.67 72.29 226.07 211.07 226.07 211.07 75.38 84.57 75.38 72.29 75.38"></polygon> <rect class="cls-4" x="115.07" y="171.75" width="56.12" height="8.71"></rect> <rect class="cls-4" x="126.74" y="186.5" width="32.78" height="8.71"></rect> <path class="cls-4" d="M142.83,101.75h.61v.6l.54,0v.48l-.64.06a3.15,3.15,0,0,0,.27.49.65.65,0,0,1,.09.89l-.14.22.21.44c.34,0,.34,0,.62-.27a.4.4,0,0,1,.26-.08c.14.23.36.13.54.12a1.48,1.48,0,0,1,1.43.79,1.94,1.94,0,0,1,0,2.29,6,6,0,0,0-.93,2.49c.38.27.76.56,1.16.83s1,.68,1.54,1a3.13,3.13,0,0,0,.83.26c.25.06.37-.08.31-.32a2,2,0,0,0-.17-.47,4.6,4.6,0,0,1-.4-.7,2.39,2.39,0,0,1-.1-.92.78.78,0,0,1,.61-.7c.35-.07.71-.39,1.09,0a.29.29,0,0,0,.28,0c.06,0,.11-.22.08-.26-.24-.28-.16-.51.06-.75,0,0,0-.16,0-.24l-.32,0c-.14-.36.19-.25.31-.32l0-.35h.39l0,.35.06,0,.32.35-.47.07a1,1,0,0,0,.12.25.46.46,0,0,1,.09.66c-.06.09,0,.27,0,.43a2.39,2.39,0,0,0,.26-.11,1.32,1.32,0,0,1,1.53.36,1.34,1.34,0,0,1,0,1.55,4.84,4.84,0,0,0-.44.91c-.09.25,0,.4.33.41a2.2,2.2,0,0,0,1.8-.79,1.29,1.29,0,0,0,.14-1.55,4.19,4.19,0,0,0-.4-.59,1.48,1.48,0,0,1,.33-2.22.59.59,0,0,0,.16-.13,1.73,1.73,0,0,1,2.21-.11c.24.2.5.4.72.62a4.49,4.49,0,0,0,1.42,1,4.11,4.11,0,0,1,.85.49.91.91,0,0,1,.15,1.37c-.13.17-.28.33-.4.5s-.15.38.12.52a2.93,2.93,0,0,1,.58.41.72.72,0,0,1,0,1.22c-.1-.36-.38-.44-.7-.46s-.76-.09-1.15-.14c.42.56.65,1.19,0,1.79a.65.65,0,0,1-.79,0c.4-.41.41-.55.06-1l-.42-.49a1.35,1.35,0,0,1-.17-1.66,5.69,5.69,0,0,1,.59-.82.89.89,0,0,0-.3-1.49,9.18,9.18,0,0,0-1.24-.44c-.23-.07-.39,0-.36.28s.08.79.16,1.17a1.71,1.71,0,0,1-.84,2.12,5.39,5.39,0,0,1-1.15.57c-.43.15-.89.23-1.44.36.16.08.25.17.35.17.31,0,.52.1.56.43.8.08,1.72-.07,2.06.91a1.77,1.77,0,0,1-.52,1.8,2.21,2.21,0,0,0-2.8-.28l2.06.71a2.44,2.44,0,0,0,2-.06c.1-.05.22-.08.4-.15a1.36,1.36,0,0,1-1.11.93,4,4,0,0,1-1.94-.22l-.5-.13a1,1,0,0,1,0,1.08.57.57,0,0,1-.66.25c.19-.4.27-.81-.14-1.08a1.67,1.67,0,0,0-.84-.29,4.72,4.72,0,0,0-1.1.19c-.31.07-.58.1-.58-.44a8.4,8.4,0,0,0-1,.53,4.19,4.19,0,0,0-1.84,3.42,1.93,1.93,0,0,0,2.51,2l.35-.08a2.12,2.12,0,0,1-2,1,2,2,0,0,0,.66.52,2.75,2.75,0,0,0,2.65-.24,2.14,2.14,0,0,1-.29,1.31c-.36.52-.94.52-1.55.58a3.84,3.84,0,0,0,1.73,1.22,2.14,2.14,0,0,0,2.45-.74,2,2,0,0,0,.3-.84,2.2,2.2,0,0,0-.67-1.68c-.85-1.15-.79-1.59.33-2.48.51-.41,1.06-.78,1.56-1.2a7.48,7.48,0,0,0,1.83-2l.12.54a13.46,13.46,0,0,0,2.66-3.23l.14.32a8.65,8.65,0,0,0,1.82-1.86,22.43,22.43,0,0,0,1.47-2.12c.43-.73.77-1.53,1.18-2.36a5,5,0,0,1,.44.65,3.77,3.77,0,0,1,.16,2.17,5,5,0,0,1-1.2,2.47c-.78,1-1.61,1.9-2.42,2.84l-.2.26.07.06a38.34,38.34,0,0,0,5-4.31.69.69,0,0,1,.34.67,3.6,3.6,0,0,1-1,2.71,23,23,0,0,1-1.95,1.79c-.36.31-.76.57-1.14.85,1.62-.67,3.1-1.67,5-1.82-.54,1.71-2,2.44-3.28,3.36,1.39,0,2.69-.39,4,0a13.6,13.6,0,0,1-1.83,1.35c-.66.38-1.38.65-2,1l3.55.52V124c-.84,1-2.07,1.18-3.19,1.63a.71.71,0,0,0,.22,0,5.17,5.17,0,0,1,2.22.66c.49.31.52.54,0,.81a6.52,6.52,0,0,1-1.52.55,13.59,13.59,0,0,1-1.56.2c.49.22.95.39,1.38.61a2.08,2.08,0,0,1,1,1,4.46,4.46,0,0,1-2.82.41,6.4,6.4,0,0,0,.52.48,3.1,3.1,0,0,1,.5.5c.34.5.37.87-.33,1a2.22,2.22,0,0,1-1.71-.23c-.79-.46-1.54-1-2.31-1.49l-.3-.2,0,.07c.4.36.82.72,1.21,1.09s.82.81,1.2,1.24a1.57,1.57,0,0,1,.35,1.4.32.32,0,0,1-.18.22,1.59,1.59,0,0,1-1.37-.2,6.52,6.52,0,0,1-.92-.84c-.45-.51-.85-1.06-1.27-1.59l-.48-.57-.06.05.39.58c.43.66.88,1.31,1.28,2a1.72,1.72,0,0,1,0,1.72.34.34,0,0,1-.26.17,2.36,2.36,0,0,1-1.94-1.35c-.39-.9-.8-1.8-1.21-2.69,0-.1-.11-.2-.17-.31a1.74,1.74,0,0,0,.15,1.51,17.32,17.32,0,0,1,.77,1.88,2.08,2.08,0,0,1-.22,1.76c-.13.25-.32.32-.55.16a3,3,0,0,1-1.36-1.71c-.23-.83-.42-1.68-.62-2.51l-.4.32c.11.55.23,1.09.32,1.63a2.46,2.46,0,0,1-.56,2c-.13.16-.27.28-.49.11a2.65,2.65,0,0,1-1.19-2.61c.05-.39.08-.79.12-1.18a1.29,1.29,0,0,0-.37.3c-.3.28-.44.3-.72,0a7.56,7.56,0,0,1-.59-.79,2.65,2.65,0,0,1-.54.67,1.08,1.08,0,0,0-.45,1.18,5.45,5.45,0,0,0,.34,1.09c.08.22.19.42.31.68l-.78.05a5.13,5.13,0,0,0,.64.68,2,2,0,0,0,2,.21l-.3.7.75.09a1.57,1.57,0,0,1,1.48,1.51c.06.48,0,1,.05,1.46,0,.66.09,1.29.94,1.48a2.25,2.25,0,0,1-.71.32,1.54,1.54,0,0,1-1.35-.58,1.37,1.37,0,0,0,.51,1.5c-.74.32-1-.15-1.42-.59l-.05.67-.1.05-.55-.73c-.31.4-.3.52.09.82.11.08.22.16.34.23a7.07,7.07,0,0,0,4.11,1.07,1.75,1.75,0,0,0,1-.58s0-.16,0-.24c0-.24-.11-.47-.17-.71l.08-.05.37.27c.13.09.24.2.38.29.36.22.57.14.68-.26.05-.19.1-.38.17-.66l.43.6c.33.46.47.45.78,0,.15-.22.33-.43.49-.64l.12,0,.4,1.16a5.29,5.29,0,0,1,.54-.48,1.45,1.45,0,0,1,.41-.12c0,.17.12.36.07.49a7.52,7.52,0,0,1-.59,1.18,2.76,2.76,0,0,1-2.41,1.47c-.08,0-.16.09-.25.12s-.43.24-.59.2a5.74,5.74,0,0,1-1.33-.57,6.43,6.43,0,0,0-2.57-.89c-.84-.11-1.67-.28-2.5-.45a7.1,7.1,0,0,0-2.22-.24,1.76,1.76,0,0,1-.47,0c-.43-.07-.57-.35-.35-.73.09-.16.24-.28.32-.44a5,5,0,0,0,.23-.61c-1.06.3-1.72.09-1.88-.55l.2,0a1,1,0,0,0,1.2-.71,1.14,1.14,0,0,0-.46-1.37,1.73,1.73,0,0,0-2.21.45l-.36.52-.16-.31a1.31,1.31,0,0,0,.32,2.35,6.59,6.59,0,0,1,.82.48,1,1,0,0,1,.47.88l-1.44-.52a.27.27,0,0,0,.14.22c.52.26,1,.52,1.55.76a8.66,8.66,0,0,1,2.35,1.41,1.55,1.55,0,0,0,.55.32.66.66,0,0,0,.93-.71c0-.17,0-.33,0-.5a1,1,0,0,1,1,.51,1.28,1.28,0,0,1-.39,1.71c.54.47,1.1.89,1,1.69a2.21,2.21,0,0,1-.93,1.75,3,3,0,0,0-.82-1.33,10.87,10.87,0,0,1-.65,1.58,1.42,1.42,0,0,1-1.93.51,6.1,6.1,0,0,0-.57-.29.33.33,0,0,0-.3.08,2.68,2.68,0,0,1-3.19.72,2.12,2.12,0,0,0-.25-.09,3.3,3.3,0,0,1-1.5,1.83H143a2.7,2.7,0,0,1-1.08-1l-.4-.87a1.45,1.45,0,0,0-.27.11,2.72,2.72,0,0,1-3-.5c-.39-.38-.39-.38-.89-.11l-.24.12a1.42,1.42,0,0,1-1.79-.42,4,4,0,0,1-.48-1,4.85,4.85,0,0,1-.17-.74l-.1-.05-.86,1.34a1.74,1.74,0,0,1-.75-1,1.87,1.87,0,0,1,.89-2.33c-.57-.72-.68-1.28-.36-1.76a.93.93,0,0,1,1-.46c0,.18,0,.36,0,.54,0,.47.27.75.73.67a2.54,2.54,0,0,0,.81-.38c.68-.4,1.33-.85,2-1.23.51-.29,1.06-.5,1.59-.76a4.37,4.37,0,0,0,.42-.26l0-.09-1.44.52a1.06,1.06,0,0,1,.52-.92c.36-.23.75-.42,1.12-.64a1,1,0,0,0,.52-1.14,7.93,7.93,0,0,0-.49-1.09l-.23.38a2.91,2.91,0,0,1-.22-.31,1.62,1.62,0,0,0-1.8-.84,1.14,1.14,0,0,0-1.05,1.36,1,1,0,0,0,1.27.9h.31a3.4,3.4,0,0,1-.6.55,1.79,1.79,0,0,1-1.45,0,6.45,6.45,0,0,0,.24.62,3.64,3.64,0,0,0,.27.35c.3.44.17.77-.35.84-.18,0-.36,0-.54,0-.53,0-1.06.05-1.58.14-.94.15-1.86.4-2.8.52a6.83,6.83,0,0,0-3,1,4.35,4.35,0,0,1-1.12.45.53.53,0,0,1-.47-.08c-.19-.28-.46-.24-.72-.27a2.47,2.47,0,0,1-.59-.14,4.08,4.08,0,0,1-2.12-2.6c0-.1.06-.28.15-.38s.23,0,.32.08.37.32.61.53c.11-.34.19-.61.28-.89s.24-.35.46-.08.2.3.3.45c.26.4.41.41.7,0l.47-.65.11.42c0,.11.05.22.09.33.11.29.28.37.55.22a2.85,2.85,0,0,0,.39-.27l.43-.34.1.06c-.06.23-.12.47-.17.7,0,.08,0,.22,0,.24.31.2.62.53.94.55a6.62,6.62,0,0,0,4.6-1.31c.35-.26.34-.44,0-.79-.15.28-.25.6-.62.72l-.05-.74a4.6,4.6,0,0,1-.59.64.6.6,0,0,1-.8,0,1.31,1.31,0,0,0,.49-1.45c-.87.72-1.62.79-2,.18.63-.08.83-.52.88-1.07,0-.27,0-.54,0-.81s0-.72.06-1.08a1.48,1.48,0,0,1,1.21-1.34c.33-.08.68-.11,1-.17l-.28-.66c1.26.31,2.38-.14,2.46-.92l-.61-.05a9.87,9.87,0,0,0,.57-1.36c.14-.56.25-1.16-.38-1.57a1.65,1.65,0,0,1-.34-.42l-.19-.27c-.22.29-.4.57-.62.82a.4.4,0,0,1-.67,0l-.33-.36a2.33,2.33,0,0,0,0,.77,2.81,2.81,0,0,1-1.06,3c-.23.17-.4.19-.57,0a2.23,2.23,0,0,1-.58-1.52c.06-.72.2-1.42.3-2.13l-.37-.3c-.21.86-.39,1.72-.63,2.56a3,3,0,0,1-1.37,1.67.31.31,0,0,1-.49-.11,1.9,1.9,0,0,1-.32-1.52,17.42,17.42,0,0,1,.9-2.3,1.84,1.84,0,0,0,.1-1.41c-.08.14-.14.24-.19.35-.4.88-.81,1.74-1.18,2.63a2.41,2.41,0,0,1-1.91,1.4c-.18,0-.26,0-.33-.19a1.77,1.77,0,0,1,0-1.7c.46-.78,1-1.52,1.47-2.28l.2-.32-.07,0c-.42.53-.82,1.07-1.26,1.59a16,16,0,0,1-1.15,1.25,1.71,1.71,0,0,1-1.55.41c-.2,0-.25-.12-.28-.31a1.6,1.6,0,0,1,.4-1.39c.59-.61,1.21-1.19,1.82-1.78.18-.18.35-.37.52-.56-.38.22-.71.49-1.08.71-.65.39-1.3.77-2,1.11a1.81,1.81,0,0,1-1.36,0c-.5-.16-.63-.46-.32-.89a6.18,6.18,0,0,1,.78-.79l.32-.28a11.09,11.09,0,0,1-1.45,0,11,11,0,0,1-1.4-.37c.49-1,1.5-1.23,2.35-1.67a3.66,3.66,0,0,0-.47,0,5.74,5.74,0,0,1-2.3-.53,3.87,3.87,0,0,1-.66-.56,6.3,6.3,0,0,1,.64-.56,2,2,0,0,1,.63-.25c.51-.12,1-.22,1.58-.34-1.13-.42-2.37-.65-3.21-1.61l0-.13,3.53-.52h0l-.24-.12a11.44,11.44,0,0,1-3.61-2.17V121a7.11,7.11,0,0,1,2.53,0l1.41.11c-.39-.34-.81-.57-1.17-.88a17.89,17.89,0,0,1-1.58-1.52,4,4,0,0,1-.46-.95,4.15,4.15,0,0,1,1.81.36c.56.21,1.1.47,1.64.72s1,.51,1.53.77a1.85,1.85,0,0,0-.42-.41c-.83-.7-1.69-1.37-2.46-2.12a3.64,3.64,0,0,1-1.13-2.88.68.68,0,0,1,.34-.67,33.53,33.53,0,0,0,5.06,4.28,1.4,1.4,0,0,0-.25-.36c-.87-1-1.76-2.06-2.6-3.13a4.75,4.75,0,0,1-1-3.57,1.75,1.75,0,0,1,.71-1.35,16.07,16.07,0,0,0,4.39,6.39,2,2,0,0,1,.07-.21,1.27,1.27,0,0,1,.09-.14,13,13,0,0,0,2.65,3.2l.1-.5a7.49,7.49,0,0,0,.69.87c.63.59,1.28,1.15,1.93,1.71.39.33.82.61,1.19,1,.65.62.68,1,.17,1.79-.23.35-.51.67-.71,1a1.53,1.53,0,0,0,0,1.73,2.07,2.07,0,0,0,2.19.91,3.56,3.56,0,0,0,2.05-1.31,2.07,2.07,0,0,1-1.44-.45,2,2,0,0,1-.4-1.44,2.7,2.7,0,0,0,1.74.45,1.88,1.88,0,0,0,1.58-.77c-1,0-1.66-.32-1.9-.91l.44.11a1.91,1.91,0,0,0,2.33-1.72,4.18,4.18,0,0,0-2.15-3.93,4.3,4.3,0,0,0-.67-.27c0,.42-.22.46-.51.4a6.24,6.24,0,0,0-1.23-.2.91.91,0,0,0-.93,1.33s0,0-.05.16a2.64,2.64,0,0,1-.58-.36c-.28-.31-.2-.68,0-1.09l-.69.2a3.65,3.65,0,0,1-1.77.16,1.35,1.35,0,0,1-1.08-.93c.22.08.37.13.52.2a2,2,0,0,0,1.42.13c.86-.26,1.71-.56,2.53-.84-.8-.44-2.22-.62-2.79.25a1.79,1.79,0,0,1-.55-1.78,1.35,1.35,0,0,1,1.34-.86l.75-.05c0-.35.23-.44.51-.42s.29,0,.29-.25a5,5,0,0,1-2.62-1,1.7,1.7,0,0,1-.72-2,6.28,6.28,0,0,0,.17-1.17c0-.35-.1-.44-.42-.34a10.53,10.53,0,0,0-1.12.4.9.9,0,0,0-.36,1.52c.14.18.3.34.43.53a1.49,1.49,0,0,1-.09,2.06,2.54,2.54,0,0,0-.22.26,2,2,0,0,0-.35.64c0,.15.17.33.26.49a.68.68,0,0,1-1-.3,1.1,1.1,0,0,1,0-1.19l.21-.34c-.37,0-.73.11-1.1.13s-.63.09-.74.46a.72.72,0,0,1,0-1.2,3,3,0,0,1,.61-.43c.27-.14.27-.31.13-.52s-.27-.33-.4-.5a.91.91,0,0,1,.15-1.37,3.47,3.47,0,0,1,.76-.44,4.94,4.94,0,0,0,1.58-1.09,4.68,4.68,0,0,1,.79-.64,1.66,1.66,0,0,1,2,.15l.4.32a1.26,1.26,0,0,1,.49,1,2.12,2.12,0,0,1-.58,1.44,1.41,1.41,0,0,0,.38,2.17,2.7,2.7,0,0,0,.93.39,2.59,2.59,0,0,0,.78-.07,4.7,4.7,0,0,0-.17-.8c-.12-.29-.34-.54-.45-.83a1.16,1.16,0,0,1,1.07-1.57,7.68,7.68,0,0,1,.9.1s.1-.16.07-.21c-.26-.38,0-.68.14-1,0,0,0,0,0-.06l-.33,0a1.11,1.11,0,0,1,.06-.25c.31,0,.23-.27.31-.44l.36,0,0,.36c.34.06.34.06.29.32l-.35,0a2.22,2.22,0,0,0,.17.33.47.47,0,0,1,0,.56c0,.09,0,.23,0,.35a2.62,2.62,0,0,0,.34-.05c.09,0,.17-.12.25-.12a4.47,4.47,0,0,1,.59.12,1.06,1.06,0,0,1,.84.95,1.79,1.79,0,0,1-.38,1.2,3.26,3.26,0,0,0-.33.7c-.08.26,0,.44.34.35a5.1,5.1,0,0,0,1.19-.46c.8-.5,1.57-1.07,2.34-1.6a3,3,0,0,1-.17-.56,3.53,3.53,0,0,0-.64-1.66,4.85,4.85,0,0,1-.33-.59,1.89,1.89,0,0,1,1.78-2.76.38.38,0,0,0,.26-.07c.15-.16.3-.09.36,0,.14.31.38.25.6.25l.21-.46a.76.76,0,0,1,.06-1.22c.08-.07.06-.23.1-.38l-.56,0v-.49l.53,0Zm-2.46,10.72.06.12c-.35.24-.69.52-1.07.72s-.79.35-1.28.55h1.79l0,.09-.78.49a3.74,3.74,0,0,0,2.55,1c-.24.43-.68.32-1.05.44l1.09,1-.39.14c.11.12.21.22.29.33a8.28,8.28,0,0,1,.54.77c0,.08,0,.23,0,.36l.76,2.45a2.5,2.5,0,0,0,.13.35.21.21,0,0,0,.13.1s.09,0,.11-.08c.09-.26.16-.52.25-.77.17-.5.33-1,.5-1.5.07-.19.17-.37.26-.56l-.23-.08c.07-.61.58-.92.9-1.36l-.4-.13,1.11-1c-.41-.09-.82,0-1.07-.43a3.7,3.7,0,0,0,2.54-1l-.77-.51.05-.12h1.67a4.35,4.35,0,0,1-2.19-1.36l2.06.29-.13-.09a2.3,2.3,0,0,0-.28-.11,7.51,7.51,0,0,1-3.05-1.64.66.66,0,0,0-.4-.14c-.59,0-1.18,0-1.77,0a.94.94,0,0,0-.7.25,6.66,6.66,0,0,1-2.62,1.44c-.22.06-.43.15-.65.23l0,.05Zm3.39,30.8a1.63,1.63,0,0,0,0,.42c.15.75.28,1.51.49,2.24s.56,1.48.79,2.24a3.35,3.35,0,0,1-.26,2.94,1.09,1.09,0,0,0-.09.24l.08.09a4.9,4.9,0,0,0,.78-.59,1.86,1.86,0,0,0,.37-1.79,12.9,12.9,0,0,0-.8-2.11A10.94,10.94,0,0,1,143.77,143.27Zm-2.17,8.09a1.15,1.15,0,0,0,0-.13,1.14,1.14,0,0,0-.09-.18,3.07,3.07,0,0,1-.3-2.58c.21-.79.51-1.57.8-2.34a7.61,7.61,0,0,0,.55-2.4c0-.15,0-.3,0-.45a9,9,0,0,1-1,3.08,17.35,17.35,0,0,0-.88,1.91,4.73,4.73,0,0,0-.25,1.52A1.58,1.58,0,0,0,141.6,151.37Zm6.51-3.5a1.63,1.63,0,0,0-.36-1.39c-.41-.45-.86-.87-1.29-1.29-.6-.59-1.23-1.17-1.81-1.79a4,4,0,0,1-.47-.89c0,.12,0,.17,0,.21a5.24,5.24,0,0,0,1.6,2.74,6.56,6.56,0,0,1,1.54,1.92A.8.8,0,0,0,148.12,147.87Zm-10,0a.77.77,0,0,0,.73-.46,7,7,0,0,1,1.63-2,5.37,5.37,0,0,0,1.33-2c.09-.26.15-.53.22-.76a9.11,9.11,0,0,1-.82,1.21c-.48.51-1,.94-1.55,1.42s-.8.79-1.19,1.21A1.64,1.64,0,0,0,138.16,147.87Z"></path> </g> </svg> 